<svg id="Layer_1" data-name="Layer 1" xmlns="http://www.w3.org/2000/svg" viewBox="0 0 180 180"><defs><style>.cls-1{fill:#fabc43;}.cls-2{fill:#e40046;}.cls-3{fill:#b94e96;}.cls-4{fill:#59358a;}.cls-5{fill:#4565ac;}.cls-6{fill:#5bc4f1;}</style></defs><g id="Brandmark"><path id="Tile_6" data-name="Tile 6" class="cls-1" d="M74.89,140H58.1a9,9,0,0,1-9-9V127.5L31.8,150.64A9,9,0,0,0,39,165H91.66a9,9,0,0,0,7.21-3.61l16-21.39Z"/><path id="Tile_5" data-name="Tile 5" class="cls-2" d="M114.86,90l-16,21.39A9,9,0,0,1,91.66,115H58.44L49.1,127.5V131a9,9,0,0,0,9,9h56.76l18.69-25Z"/><path id="Tile_4" data-name="Tile 4" class="cls-3" d="M133.55,115l14.66-19.62a9,9,0,0,0,0-10.76L133.55,65,114.86,90Z"/><path id="Tile_3" data-name="Tile 3" class="cls-4" d="M73.11,95.38,58.44,115H91.66a9,9,0,0,0,7.21-3.61l16-21.39-16-21.39A9,9,0,0,0,91.66,65H58.44L73.11,84.62A9,9,0,0,1,73.11,95.38Z"/><path id="Tile_2" data-name="Tile 2" class="cls-5" d="M114.86,40H58.1a9,9,0,0,0-9,9V52.5L58.44,65H91.66a9,9,0,0,1,7.21,3.61l16,21.39,18.69-25Z"/><path id="Tile_1" data-name="Tile 1" class="cls-6" d="M98.87,18.61A9,9,0,0,0,91.66,15H39A9,9,0,0,0,31.8,29.36L49.1,52.5V49a9,9,0,0,1,9-9h56.76Z"/></g></svg>